<svg width="330" height="315" viewBox="0 0 330 315" fill="none" xmlns="http://www.w3.org/2000/svg">
<path fill-rule="evenodd" clip-rule="evenodd" d="M107.609 113C110.4 113 112.661 110.738 112.661 107.948V80.1616C121.311 80.1616 128.323 73.1497 128.323 64.5002C128.323 55.8506 121.311 48.8388 112.661 48.8387V21.0521C112.661 18.2619 110.4 16 107.609 16H20.7136C17.9234 16 15.6615 18.2619 15.6615 21.0521L15.6615 48.8385C7.01187 48.8385 0 55.8504 0 64.5C0 73.1496 7.01187 80.1615 15.6615 80.1615L15.6615 107.948C15.6615 110.738 17.9234 113 20.7136 113H45.5849C47.0904 104.011 54.9067 97.1616 64.323 97.1616C73.7392 97.1616 81.5556 104.011 83.0611 113H107.609Z" fill="#FFB3DA"/>
<path fill-rule="evenodd" clip-rule="evenodd" d="M213.661 208.948C213.661 211.738 211.4 214 208.609 214H182.669C181.033 205.456 173.521 199 164.5 199C155.479 199 147.967 205.456 146.331 214H121.714C118.923 214 116.661 211.738 116.661 208.948L116.661 181.161C108.012 181.161 101 174.15 101 165.5C101 156.85 108.012 149.839 116.661 149.839L116.661 122.052C116.661 119.262 118.923 117 121.714 117H208.609C211.4 117 213.661 119.262 213.661 122.052V208.948Z" fill="#FF108C"/>
<path fill-rule="evenodd" clip-rule="evenodd" d="M313.661 107.948C313.661 110.738 311.4 113 308.609 113H283.669C282.033 104.456 274.521 98 265.5 98C256.479 98 248.967 104.456 247.331 113H221.714C218.923 113 216.661 110.738 216.661 107.948L216.661 80.1615C208.012 80.1615 201 73.1496 201 64.5C201 55.8504 208.012 48.8385 216.661 48.8385L216.661 21.0521C216.661 18.2619 218.923 16 221.714 16H308.609C311.4 16 313.661 18.2619 313.661 21.0521V107.948Z" fill="#FF108C"/>
<path fill-rule="evenodd" clip-rule="evenodd" d="M117 107.609C117 110.4 119.262 112.661 122.052 112.661H208.948C211.738 112.661 214 110.4 214 107.609V83.896C204.447 82.8966 197 74.8179 197 65C197 55.1821 204.447 47.1034 214 46.104V20.7136C214 17.9234 211.738 15.6615 208.948 15.6615L181.161 15.6615C181.161 7.01187 174.15 0 165.5 0C156.85 0 149.839 7.01187 149.839 15.6615L122.052 15.6615C119.262 15.6615 117 17.9234 117 20.7136V46.4218C125.573 48.2587 132 55.8788 132 65C132 74.1212 125.573 81.7413 117 83.5782V107.609Z" fill="#66E2F1"/>
<path fill-rule="evenodd" clip-rule="evenodd" d="M21.0521 213.661C18.2619 213.661 16 211.4 16 208.609V121.714C16 118.923 18.2619 116.661 21.0521 116.661L48.8385 116.661C48.8385 108.012 55.8504 101 64.5 101C73.1496 101 80.1615 108.012 80.1615 116.661L107.948 116.661C110.738 116.661 113 118.923 113 121.714V147.236C103.932 148.674 97 156.527 97 166C97 175.473 103.932 183.326 113 184.764V208.609C113 211.4 110.738 213.661 107.948 213.661H21.0521Z" fill="#FFD817"/>
<path fill-rule="evenodd" clip-rule="evenodd" d="M21.0521 218C18.2619 218 16 220.262 16 223.052V309.948C16 312.738 18.2619 315 21.0521 315H107.948C110.738 315 113 312.738 113 309.948L113 282.161C121.65 282.161 128.661 275.15 128.661 266.5C128.661 257.85 121.65 250.839 113 250.839L113 223.052C113 220.262 110.738 218 107.948 218H21.0521Z" fill="#66E2F1"/>
<path fill-rule="evenodd" clip-rule="evenodd" d="M208.609 218H179.971C179.624 209.657 172.751 203 164.323 203C155.895 203 149.022 209.657 148.675 218H121.713C118.923 218 116.661 220.262 116.661 223.052V247.236C125.729 248.674 132.661 256.527 132.661 266C132.661 275.473 125.729 283.326 116.661 284.764V309.948C116.661 312.738 118.923 315 121.713 315H208.609C211.399 315 213.661 312.738 213.661 309.948L213.661 282.161C222.311 282.161 229.323 275.15 229.323 266.5C229.323 257.85 222.311 250.839 213.661 250.839L213.661 223.052C213.661 220.262 211.399 218 208.609 218Z" fill="#0B70FE"/>
<path fill-rule="evenodd" clip-rule="evenodd" d="M222.375 218H247.422C249.259 226.573 256.879 233 266 233C275.121 233 282.741 226.573 284.578 218H309.271C312.061 218 314.323 220.262 314.323 223.052L314.323 250.839C322.973 250.839 329.984 257.85 329.984 266.5C329.984 275.15 322.973 282.161 314.323 282.161L314.323 309.948C314.323 312.738 312.061 315 309.271 315H222.375C219.585 315 217.323 312.738 217.323 309.948V284.764C226.391 283.326 233.323 275.473 233.323 266C233.323 256.527 226.391 248.674 217.323 247.236V223.052C217.323 220.262 219.585 218 222.375 218Z" fill="#66E2F1"/>
<path d="M189.896 282.056V252.168H193.864V282.056H189.896ZM179.176 262.024H183.4V252.648H187.272V281.352H183.4V265.768H179.176V262.024ZM176.52 253.832V257.896C176.52 260.392 176.328 262.76 175.88 265.064L182.12 275.528L178.824 277.768L174.376 270.344C173.384 273.032 171.976 275.592 170.152 278.056L167.048 275.688C170.92 270.28 172.648 264.584 172.648 257.896V253.832H176.52Z" fill="#66E2F1"/>
<path d="M158.912 265.832H153.408C152.064 268.52 149.344 269.8 146.208 269.8C141.696 269.8 138.08 267.176 138.08 261.576V261.096C138.08 255.432 141.696 252.808 146.208 252.808C149.024 252.808 151.52 253.864 152.96 256.04H158.912V252.168H163.008V274.28H158.912V265.832ZM142.176 261.096V261.544C142.176 264.744 144 266.216 146.208 266.216C148.384 266.216 150.208 264.744 150.208 261.544V261.096C150.208 257.896 148.384 256.392 146.208 256.392C144 256.392 142.176 257.896 142.176 261.096ZM158.912 262.6V259.304H154.176C154.272 259.848 154.304 260.456 154.304 261.096V261.576C154.304 261.928 154.304 262.28 154.272 262.6H158.912ZM146.816 272.264V278.344H164.128V282.056H142.72V272.264H146.816Z" fill="#66E2F1"/>
<path d="M89.9516 265.032H94.5916V268.744H87.1036V275.048H83.1356V268.744H78.5596V275.048H74.5596V268.744H66.4316V265.032H85.8556C86.3356 261.928 86.6556 258.696 86.6876 256.776H69.7916V253.032H90.7836V255.24C90.7836 258.152 90.4636 261.672 89.9516 265.032ZM69.8556 272.168H73.9516V278.344H91.8076V282.088H69.8556V272.168Z" fill="#0B70FE"/>
<path d="M62.008 268.456H57.912V260.808H52.056V257.192H57.912V252.2H62.008V268.456ZM52.568 268.072L45.176 262.888C43.672 265 41.464 266.856 38.552 268.552L36.344 265.32C41.688 262.152 43.64 258.792 43.64 255.016V253.064H47.64V255.016C47.64 256.616 47.416 258.088 46.936 259.464L54.776 264.904L52.568 268.072ZM48.312 269.768H55.096C59.384 269.768 62.36 272.296 62.36 276.072C62.36 279.88 59.384 282.376 55.096 282.376H48.312C44.024 282.376 41.08 279.88 41.08 276.072C41.08 272.296 44.024 269.768 48.312 269.768ZM48.888 278.728H54.52C56.984 278.728 58.264 277.64 58.264 276.04C58.264 274.472 56.984 273.384 54.52 273.384H48.888C46.424 273.384 45.176 274.472 45.176 276.04C45.176 277.64 46.424 278.728 48.888 278.728Z" fill="#0B70FE"/>
<path d="M297.008 255.08V258.568H292.656V261.32H297.008V264.808H292.656V268.456H288.592V252.2H292.656V255.08H297.008ZM284.656 259.976V260.392C284.656 265.288 281.104 267.656 276.592 267.656C272.048 267.656 268.496 265.288 268.496 260.392V259.976C268.496 255.016 272.048 252.68 276.592 252.68C281.104 252.68 284.656 255.016 284.656 259.976ZM272.592 260.008V260.296C272.592 262.888 274.352 264.072 276.592 264.072C278.8 264.072 280.56 262.888 280.56 260.296V260.008C280.56 257.416 278.8 256.232 276.592 256.232C274.352 256.232 272.592 257.416 272.592 260.008ZM279.6 269.768H286.128C290.384 269.768 293.328 272.296 293.328 276.072C293.328 279.88 290.384 282.376 286.128 282.376H279.6C275.344 282.376 272.368 279.88 272.368 276.072C272.368 272.296 275.344 269.768 279.6 269.768ZM280.144 278.728H285.552C287.984 278.728 289.232 277.64 289.232 276.04C289.232 274.472 287.984 273.384 285.552 273.384H280.144C277.744 273.384 276.464 274.472 276.464 276.04C276.464 277.64 277.744 278.728 280.144 278.728Z" fill="#0B70FE"/>
<path d="M248.936 254.792H255.656V258.184H238.088V254.792H244.808V251.848H248.936V254.792ZM262.312 252.168V260.456H266.664V264.2H262.312V274.568H258.248V252.168H262.312ZM254.408 265.256V265.704C254.408 269.448 251.112 271.4 246.888 271.4C242.696 271.4 239.336 269.448 239.336 265.704V265.256C239.336 261.544 242.696 259.592 246.888 259.592C251.112 259.592 254.408 261.544 254.408 265.256ZM243.336 265.32V265.64C243.336 267.112 244.904 268.008 246.888 268.008C248.904 268.008 250.44 267.112 250.44 265.64V265.32C250.44 263.848 248.904 262.984 246.888 262.984C244.904 262.984 243.336 263.848 243.336 265.32ZM242.664 273.576H246.76V278.344H263.72V282.056H242.664V273.576Z" fill="#0B70FE"/>
<path fill-rule="evenodd" clip-rule="evenodd" d="M308.948 117H281.309C280.963 108.657 274.089 102 265.661 102C257.233 102 250.36 108.657 250.014 117H222.052C219.262 117 217 119.262 217 122.052V208.948C217 211.738 219.262 214 222.052 214H250.004C250.184 222.493 257.125 229.323 265.661 229.323C274.198 229.323 281.139 222.493 281.319 214H308.948C311.738 214 314 211.738 314 208.948V122.052C314 119.262 311.738 117 308.948 117Z" fill="#FF9F00"/>
<path d="M192.352 66.9362H188.256V50.2002H192.352V66.9362ZM175.648 65.9442C171.04 65.9442 167.424 63.5762 167.424 58.5522V58.1042C167.424 53.0802 171.04 50.6802 175.648 50.6802C180.224 50.6802 183.872 53.0802 183.872 58.1042V58.5522C183.872 63.5762 180.224 65.9442 175.648 65.9442ZM175.648 62.3922C177.952 62.3922 179.776 61.1442 179.776 58.4882V58.1362C179.776 55.4482 177.952 54.2322 175.648 54.2322C173.344 54.2322 171.52 55.4482 171.52 58.1362V58.4882C171.52 61.1442 173.344 62.3922 175.648 62.3922ZM192.352 80.3762H188.256V72.2482H171.744V68.5682H192.352V80.3762Z" fill="#0B70FE"/>
<path d="M152.248 51.8642H161.912V54.9042H138.424V51.8642H148.152V49.7202H152.248V51.8642ZM152.216 64.7282V66.2962H164.248V69.4322H136.088V66.2962H148.12V64.7282H146.52C142.392 64.7282 139.864 63.0962 139.864 60.5362C139.864 57.9122 142.392 56.2482 146.52 56.2482H153.848C157.944 56.2482 160.472 57.9122 160.472 60.5362C160.472 63.0962 157.944 64.7282 153.848 64.7282H152.216ZM143.96 60.5042C143.96 61.2402 144.92 61.6882 147.16 61.6882H153.176C155.448 61.6882 156.376 61.2402 156.376 60.5042C156.376 59.7362 155.448 59.2562 153.176 59.2562H147.16C144.92 59.2562 143.96 59.7362 143.96 60.5042ZM146.52 70.8722H153.848C158.616 70.8722 161.304 72.7602 161.304 75.6082C161.304 78.4562 158.616 80.3762 153.848 80.3762H146.52C141.784 80.3762 139.064 78.4562 139.064 75.6082C139.064 72.7602 141.784 70.8722 146.52 70.8722ZM147.48 77.2082H152.856C155.928 77.2082 157.208 76.6002 157.208 75.5762C157.208 74.5522 155.928 74.0082 152.856 74.0082H147.48C144.408 74.0082 143.128 74.5522 143.128 75.5762C143.128 76.6002 144.408 77.2082 147.48 77.2082Z" fill="#0B70FE"/>
<path d="M192.352 66.9362H188.256V50.2002H192.352V66.9362ZM175.648 65.9442C171.04 65.9442 167.424 63.5762 167.424 58.5522V58.1042C167.424 53.0802 171.04 50.6802 175.648 50.6802C180.224 50.6802 183.872 53.0802 183.872 58.1042V58.5522C183.872 63.5762 180.224 65.9442 175.648 65.9442ZM175.648 62.3922C177.952 62.3922 179.776 61.1442 179.776 58.4882V58.1362C179.776 55.4482 177.952 54.2322 175.648 54.2322C173.344 54.2322 171.52 55.4482 171.52 58.1362V58.4882C171.52 61.1442 173.344 62.3922 175.648 62.3922ZM192.352 80.3762H188.256V72.2482H171.744V68.5682H192.352V80.3762Z" fill="#0B70FE"/>
<path d="M152.248 51.8642H161.912V54.9042H138.424V51.8642H148.152V49.7202H152.248V51.8642ZM152.216 64.7282V66.2962H164.248V69.4322H136.088V66.2962H148.12V64.7282H146.52C142.392 64.7282 139.864 63.0962 139.864 60.5362C139.864 57.9122 142.392 56.2482 146.52 56.2482H153.848C157.944 56.2482 160.472 57.9122 160.472 60.5362C160.472 63.0962 157.944 64.7282 153.848 64.7282H152.216ZM143.96 60.5042C143.96 61.2402 144.92 61.6882 147.16 61.6882H153.176C155.448 61.6882 156.376 61.2402 156.376 60.5042C156.376 59.7362 155.448 59.2562 153.176 59.2562H147.16C144.92 59.2562 143.96 59.7362 143.96 60.5042ZM146.52 70.8722H153.848C158.616 70.8722 161.304 72.7602 161.304 75.6082C161.304 78.4562 158.616 80.3762 153.848 80.3762H146.52C141.784 80.3762 139.064 78.4562 139.064 75.6082C139.064 72.7602 141.784 70.8722 146.52 70.8722ZM147.48 77.2082H152.856C155.928 77.2082 157.208 76.6002 157.208 75.5762C157.208 74.5522 155.928 74.0082 152.856 74.0082H147.48C144.408 74.0082 143.128 74.5522 143.128 75.5762C143.128 76.6002 144.408 77.2082 147.48 77.2082Z" fill="#0B70FE"/>
<path d="M190.976 162.272H194.976V166.016H190.976V181.056H186.88V151.168H190.976V162.272ZM177.28 154.24H183.904V157.536H166.496V154.24H173.152V151.2H177.28V154.24ZM177.44 170.816V173.728C179.84 173.568 182.4 173.344 184.736 173.056L185.152 176.608C180.64 177.248 174.944 177.6 170.72 177.6H166.176L165.952 173.952H171.104C171.776 173.952 172.544 173.952 173.344 173.92V170.848C170.08 170.336 167.776 168.416 167.776 165.248V164.8C167.776 161.024 171.04 159.04 175.264 159.04C179.424 159.04 182.688 161.024 182.688 164.8V165.248C182.688 168.32 180.512 170.208 177.44 170.816ZM171.744 164.832V165.216C171.744 166.88 173.248 167.808 175.264 167.808C177.216 167.808 178.72 166.88 178.72 165.216V164.832C178.72 163.168 177.216 162.24 175.264 162.24C173.248 162.24 171.744 163.168 171.744 164.832Z" fill="#FFB3DA"/>
<path d="M162.008 181.056H157.912V151.168H162.008V181.056ZM145.24 177.248C140.76 177.248 137.08 174.432 137.08 167.136V162.56C137.08 155.264 140.76 152.448 145.24 152.448C149.688 152.448 153.368 155.264 153.368 162.56V167.136C153.368 174.432 149.688 177.248 145.24 177.248ZM145.24 173.536C147.448 173.536 149.272 171.936 149.272 167.136V162.56C149.272 157.76 147.448 156.16 145.24 156.16C143.032 156.16 141.176 157.76 141.176 162.56V167.136C141.176 171.936 143.032 173.536 145.24 173.536Z" fill="#FFB3DA"/>
<path d="M294.592 61.688V65.272H282.56V69.016H291.328V80.376H287.232V72.568H269.728V69.016H278.464V65.272H266.432V61.688H286.016C286.4 59.064 286.656 56.408 286.688 54.776H269.792V51.064H290.784V53.112C290.784 55.672 290.528 58.744 290.112 61.688H294.592Z" fill="#FFB3DA"/>
<path d="M257.944 61.528H250.296C247.96 64.632 244.056 66.968 238.968 68.76L237.24 65.208C244.472 62.712 248.248 59.032 248.696 55.48H238.104V51.768H252.856V53.784C252.856 55.256 252.632 56.632 252.216 57.912H257.944V50.168H262.008V72.28H257.944V61.528ZM245.816 70.264V76.344H263.128V80.056H241.752V70.264H245.816Z" fill="#FFB3DA"/>
<path d="M87.2556 56.92V50.168H91.3516V80.056H87.2556V68.728H82.3596V65.016H87.2556V60.632H82.3596V56.92H87.2556ZM70.9676 72.248H73.3676C76.3756 72.248 79.4476 71.96 82.4556 71.48L82.9036 75.032C80.0236 75.608 76.6316 75.928 72.6316 75.928H66.9036V62.104H76.5036V55.896H66.9036V52.216H80.5676V65.688H70.9676V72.248Z" fill="#FF108C"/>
<path d="M56.0159 56.2477V56.0877H37.9039V52.3438H60.1439V55.0317C60.1439 59.4477 59.5679 64.9517 58.7039 69.9757L54.6719 69.3358C55.4719 64.6318 56.0159 59.2237 56.0159 56.2477ZM48.8799 62.9677V74.2317H63.2479V77.9758H35.0879V74.2317H44.7839V62.9677H48.8799Z" fill="#FF108C"/>
<path d="M89.6878 151.2V157.024H94.0078V160.704H89.6878V167.456H85.5918V151.2H89.6878ZM80.9198 152.608V154.432C80.9198 161.312 75.7358 165.376 67.1918 167.904L65.5918 164.256C72.4078 162.304 76.1198 159.36 76.6958 156.32H66.4878V152.608H80.9198ZM76.5998 168.768H83.1278C87.3838 168.768 90.3278 171.296 90.3278 175.072C90.3278 178.88 87.3838 181.376 83.1278 181.376H76.5998C72.3438 181.376 69.3678 178.88 69.3678 175.072C69.3678 171.296 72.3438 168.768 76.5998 168.768ZM77.1758 177.728H82.5518C84.9838 177.728 86.2318 176.64 86.2318 175.04C86.2318 173.472 84.9838 172.384 82.5518 172.384H77.1758C74.7438 172.384 73.4638 173.472 73.4638 175.04C73.4638 176.64 74.7438 177.728 77.1758 177.728Z" fill="#FF9F00"/>
<path d="M56.9119 161.024V151.168H61.0079V181.056H56.9119V164.768H50.4159V161.024H56.9119ZM46.5439 152.832V156.928C46.5439 159.36 46.2559 161.664 45.7119 163.872L54.0959 174.176L51.0559 176.768L44.1439 168.32C42.7359 171.392 40.6559 174.272 37.9039 177.056L35.0239 174.368C40.3039 168.992 42.5439 163.68 42.5439 156.928V152.832H46.5439Z" fill="#FF9F00"/>
<path d="M283.2 161.024H277.824C272.992 161.024 269.568 159.616 269.568 156.128C269.568 152.672 272.992 151.264 277.824 151.264H283.2C288.032 151.264 291.488 152.672 291.488 156.128C291.488 159.616 288.032 161.024 283.2 161.024ZM282.4 154.464H278.656C275.424 154.464 273.632 154.944 273.632 156.16C273.632 157.376 275.424 157.888 278.656 157.888H282.4C285.6 157.888 287.392 157.344 287.392 156.16C287.392 154.944 285.6 154.464 282.4 154.464ZM294.592 162.752V165.984H282.56V168.128H291.328V176.16H273.792V177.952H292.128V181.216H269.728V173.024H287.232V171.328H269.568V168.128H278.464V165.984H266.432V162.752H294.592Z" fill="#FFD817"/>
<path d="M257.912 161.024V151.168H262.008V181.056H257.912V164.768H251.416V161.024H257.912ZM247.544 152.832V156.928C247.544 159.36 247.256 161.664 246.712 163.872L255.096 174.176L252.056 176.768L245.144 168.32C243.736 171.392 241.656 174.272 238.904 177.056L236.024 174.368C241.304 168.992 243.544 163.68 243.544 156.928V152.832H247.544Z" fill="#FFD817"/>
</svg>
