<svg width="160" height="159" viewBox="0 0 160 159" fill="none" xmlns="http://www.w3.org/2000/svg">
<g id="&#235;&#160;&#136;&#236;&#157;&#180;&#236;&#150;&#180; 3">
<path id="Vector" fill-rule="evenodd" clip-rule="evenodd" d="M129.87 21.19H89.42C88.93 9.41 79.22 0 67.32 0C55.42 0 45.71 9.4 45.22 21.19H7.14C3.2 21.19 0 24.38 0 28.33V62.49C12.81 64.52 22.6 75.61 22.6 88.99C22.6 102.37 12.81 113.46 0 115.49V151.06C0 155 3.19 158.2 7.14 158.2H129.87C133.81 158.2 137.01 155.01 137.01 151.06V111.82C149.23 111.82 159.13 101.92 159.13 89.7C159.13 77.48 149.23 67.58 137.01 67.58V28.34C137.01 24.4 133.81 21.2 129.87 21.2V21.19Z" fill="#FF108C"/>
</g>
</svg>
