<svg width="298" height="129" viewBox="0 0 298 129" fill="none" xmlns="http://www.w3.org/2000/svg">
<g clip-path="url(#clip0_73_7326)">
<path fill-rule="evenodd" clip-rule="evenodd" d="M197.661 107.948C197.661 110.738 195.4 113 192.609 113H166.669C165.033 104.456 157.521 98 148.5 98C139.479 98 131.967 104.456 130.331 113H105.714C102.923 113 100.661 110.738 100.661 107.948L100.661 80.1615C92.0119 80.1615 85 73.1496 85 64.5C85 55.8504 92.0119 48.8385 100.661 48.8385L100.661 21.0521C100.661 18.2619 102.923 16 105.714 16H192.609C195.4 16 197.661 18.2619 197.661 21.0521V107.948Z" fill="#FF108C"/>
<path fill-rule="evenodd" clip-rule="evenodd" d="M5.05209 112.661C2.2619 112.661 0 110.4 0 107.609V20.7136C0 17.9234 2.26189 15.6615 5.05208 15.6615L32.8385 15.6615C32.8385 7.01187 39.8504 0 48.5 0C57.1496 0 64.1615 7.01187 64.1615 15.6615L91.9479 15.6615C94.7381 15.6615 97 17.9234 97 20.7136V46.2355C87.932 47.6739 81 55.5274 81 65C81 74.4726 87.932 82.3261 97 83.7645V107.609C97 110.4 94.7381 112.661 91.9479 112.661H5.05209Z" fill="#FFD817"/>
<path fill-rule="evenodd" clip-rule="evenodd" d="M292.948 16H265.309C264.963 7.65721 258.089 1 249.661 1C241.233 1 234.36 7.65721 234.014 16H206.052C203.262 16 201 18.2619 201 21.0521V107.948C201 110.738 203.262 113 206.052 113H234.004C234.184 121.493 241.125 128.323 249.661 128.323C258.198 128.323 265.139 121.493 265.319 113H292.948C295.738 113 298 110.738 298 107.948V21.0521C298 18.2619 295.738 16 292.948 16Z" fill="#FF9F00"/>
<path d="M174.976 61.272H178.976V65.016H174.976V80.056H170.88V50.168H174.976V61.272ZM161.28 53.24H167.904V56.536H150.496V53.24H157.152V50.2H161.28V53.24ZM161.44 69.816V72.728C163.84 72.568 166.4 72.344 168.736 72.056L169.152 75.608C164.64 76.248 158.944 76.6 154.72 76.6H150.176L149.952 72.952H155.104C155.776 72.952 156.544 72.952 157.344 72.92V69.848C154.08 69.336 151.776 67.416 151.776 64.248V63.8C151.776 60.024 155.04 58.04 159.264 58.04C163.424 58.04 166.688 60.024 166.688 63.8V64.248C166.688 67.32 164.512 69.208 161.44 69.816ZM155.744 63.832V64.216C155.744 65.88 157.248 66.808 159.264 66.808C161.216 66.808 162.72 65.88 162.72 64.216V63.832C162.72 62.168 161.216 61.24 159.264 61.24C157.248 61.24 155.744 62.168 155.744 63.832Z" fill="#FFB3DA"/>
<path d="M146.008 80.056H141.912V50.168H146.008V80.056ZM129.24 76.248C124.76 76.248 121.08 73.432 121.08 66.136V61.56C121.08 54.264 124.76 51.448 129.24 51.448C133.688 51.448 137.368 54.264 137.368 61.56V66.136C137.368 73.432 133.688 76.248 129.24 76.248ZM129.24 72.536C131.448 72.536 133.272 70.936 133.272 66.136V61.56C133.272 56.76 131.448 55.16 129.24 55.16C127.032 55.16 125.176 56.76 125.176 61.56V66.136C125.176 70.936 127.032 72.536 129.24 72.536Z" fill="#FFB3DA"/>
<path d="M73.6877 50.2002V56.0242H78.0077V59.7042H73.6877V66.4562H69.5917V50.2002H73.6877ZM64.9197 51.6082V53.4322C64.9197 60.3122 59.7357 64.3762 51.1917 66.9042L49.5917 63.2562C56.4077 61.3042 60.1197 58.3602 60.6957 55.3202H50.4877V51.6082H64.9197ZM60.5997 67.7682H67.1277C71.3837 67.7682 74.3277 70.2962 74.3277 74.0722C74.3277 77.8802 71.3837 80.3762 67.1277 80.3762H60.5997C56.3437 80.3762 53.3677 77.8802 53.3677 74.0722C53.3677 70.2962 56.3437 67.7682 60.5997 67.7682ZM61.1757 76.7282H66.5517C68.9837 76.7282 70.2317 75.6402 70.2317 74.0402C70.2317 72.4722 68.9837 71.3842 66.5517 71.3842H61.1757C58.7437 71.3842 57.4637 72.4722 57.4637 74.0402C57.4637 75.6402 58.7437 76.7282 61.1757 76.7282Z" fill="#FF9F00"/>
<path d="M40.9119 60.024V50.168H45.0079V80.056H40.9119V63.768H34.4159V60.024H40.9119ZM30.5439 51.832V55.928C30.5439 58.36 30.2559 60.664 29.7119 62.872L38.0959 73.176L35.0559 75.768L28.1439 67.32C26.7359 70.392 24.6559 73.272 21.9039 76.056L19.0239 73.368C24.3039 67.992 26.5439 62.68 26.5439 55.928V51.832H30.5439Z" fill="#FF9F00"/>
<path d="M267.2 60.0237H261.824C256.992 60.0237 253.568 58.6157 253.568 55.1277C253.568 51.6717 256.992 50.2637 261.824 50.2637H267.2C272.032 50.2637 275.488 51.6717 275.488 55.1277C275.488 58.6157 272.032 60.0237 267.2 60.0237ZM266.4 53.4637H262.656C259.424 53.4637 257.632 53.9437 257.632 55.1597C257.632 56.3757 259.424 56.8877 262.656 56.8877H266.4C269.6 56.8877 271.392 56.3437 271.392 55.1597C271.392 53.9437 269.6 53.4637 266.4 53.4637ZM278.592 61.7517V64.9837H266.56V67.1277H275.328V75.1597H257.792V76.9517H276.128V80.2157H253.728V72.0237H271.232V70.3277H253.568V67.1277H262.464V64.9837H250.432V61.7517H278.592Z" fill="#FFD817"/>
<path d="M241.912 60.024V50.168H246.008V80.056H241.912V63.768H235.416V60.024H241.912ZM231.544 51.832V55.928C231.544 58.36 231.256 60.664 230.712 62.872L239.096 73.176L236.056 75.768L229.144 67.32C227.736 70.392 225.656 73.272 222.904 76.056L220.024 73.368C225.304 67.992 227.544 62.68 227.544 55.928V51.832H231.544Z" fill="#FFD817"/>
</g>
<defs>
<clipPath id="clip0_73_7326">
<rect width="298" height="128.32" fill="white"/>
</clipPath>
</defs>
</svg>
