<svg width="182" height="180" viewBox="0 0 182 180" fill="none" xmlns="http://www.w3.org/2000/svg">
<g id="Frame 1171275529">
<g id="Group 103">
<path id="Subtract" fill-rule="evenodd" clip-rule="evenodd" d="M170.12 150.865C170.12 154.806 166.926 158.001 162.985 158.001H126.348C124.037 145.934 113.427 136.815 100.686 136.815C87.9453 136.815 77.3345 145.934 75.0239 158.001H40.2554C36.3146 158.001 33.1199 154.806 33.1199 150.865L33.1199 111.62C20.9034 111.62 11 101.717 11 89.5003C11 77.2838 20.9034 67.3804 33.1199 67.3804L33.1199 28.1354C33.1199 24.1947 36.3146 21 40.2554 21H162.985C166.926 21 170.12 24.1946 170.12 28.1354V150.865Z" fill="#FF108C"/>
<g id="&#236;&#157;&#180;&#237;&#153;&#148;">
<path id="Vector" d="M139.492 84.9413H145.142V90.2293H139.492V111.471H133.707V69.2583H139.492V84.9413ZM120.148 73.5971H129.504V78.2523H104.917V73.5971H114.318V69.3035H120.148V73.5971ZM120.374 97.0087V101.122C123.764 100.896 127.38 100.579 130.679 100.172L131.267 105.189C124.894 106.093 116.849 106.59 110.883 106.59H104.465L104.149 101.438H111.425C112.375 101.438 113.459 101.438 114.589 101.393V97.0539C109.979 96.3307 106.725 93.619 106.725 89.1446V88.5118C106.725 83.1787 111.335 80.3765 117.301 80.3765C123.176 80.3765 127.786 83.1787 127.786 88.5118V89.1446C127.786 93.4834 124.713 96.15 120.374 97.0087ZM112.329 88.557V89.0994C112.329 91.4496 114.454 92.7603 117.301 92.7603C120.058 92.7603 122.182 91.4496 122.182 89.0994V88.557C122.182 86.2068 120.058 84.8961 117.301 84.8961C114.454 84.8961 112.329 86.2068 112.329 88.557Z" fill="#FFB3DA"/>
<path id="Vector_2" d="M98.5788 111.471H92.7937V69.2583H98.5788V111.471ZM74.8961 106.093C68.5686 106.093 63.3711 102.116 63.3711 91.8111V85.3481C63.3711 75.0434 68.5686 71.0661 74.8961 71.0661C81.1783 71.0661 86.3759 75.0434 86.3759 85.3481V91.8111C86.3759 102.116 81.1783 106.093 74.8961 106.093ZM74.8961 100.85C78.0146 100.85 80.5908 98.5905 80.5908 91.8111V85.3481C80.5908 78.5687 78.0146 76.3089 74.8961 76.3089C71.7776 76.3089 69.1562 78.5687 69.1562 85.3481V91.8111C69.1562 98.5905 71.7776 100.85 74.8961 100.85Z" fill="#FFB3DA"/>
</g>
</g>
</g>
</svg>
