<svg width="182" height="180" viewBox="0 0 182 180" fill="none" xmlns="http://www.w3.org/2000/svg">
<g id="Frame 1171275533">
<g id="Group 107">
<path id="Subtract" fill-rule="evenodd" clip-rule="evenodd" d="M18.1354 21H53.5108C56.1052 33.1078 66.8676 42.1857 79.7503 42.1857C92.6329 42.1857 103.395 33.1078 105.99 21H140.865C144.806 21 148.001 24.1946 148.001 28.1354L148.001 67.3804C160.217 67.3804 170.12 77.2838 170.12 89.5003C170.12 101.717 160.217 111.62 148.001 111.62L148.001 150.865C148.001 154.806 144.806 158.001 140.865 158.001H18.1355C14.1947 158.001 11 154.806 11 150.865V115.297C23.8074 113.265 33.598 102.173 33.598 88.7941C33.598 75.4152 23.8074 64.323 11 62.2915V28.1355C11 24.1947 14.1946 21 18.1354 21Z" fill="#66E2F1"/>
<g id="&#237;&#149;&#156;&#236;&#150;&#145;">
<path id="Vector" d="M123.545 73.3704V78.2968H117.398V82.1836H123.545V87.11H117.398V92.2623H111.659V69.3027H117.398V73.3704H123.545ZM106.099 80.2854V80.8729C106.099 87.7879 101.083 91.1324 94.71 91.1324C88.2922 91.1324 83.2754 87.7879 83.2754 80.8729V80.2854C83.2754 73.28 88.2922 69.9807 94.71 69.9807C101.083 69.9807 106.099 73.28 106.099 80.2854ZM89.0605 80.3306V80.7373C89.0605 84.3982 91.5463 86.0705 94.71 86.0705C97.8285 86.0705 100.314 84.3982 100.314 80.7373V80.3306C100.314 76.6697 97.8285 74.9974 94.71 74.9974C91.5463 74.9974 89.0605 76.6697 89.0605 80.3306ZM98.9584 94.1154H108.178C114.189 94.1154 118.348 97.6859 118.348 103.019C118.348 108.397 114.189 111.923 108.178 111.923H98.9584C92.9473 111.923 88.7441 108.397 88.7441 103.019C88.7441 97.6859 92.9473 94.1154 98.9584 94.1154ZM99.7268 106.77H107.365C110.8 106.77 112.562 105.234 112.562 102.974C112.562 100.759 110.8 99.2225 107.365 99.2225H99.7268C96.337 99.2225 94.5292 100.759 94.5292 102.974C94.5292 105.234 96.337 106.77 99.7268 106.77Z" fill="#0B70FE"/>
<path id="Vector_2" d="M55.6496 72.9637H65.1408V77.7545H40.3281V72.9637H49.8193V68.8057H55.6496V72.9637ZM74.5415 69.2576V80.9634H80.6882V86.2513H74.5415V100.895H68.8016V69.2576H74.5415ZM63.3781 87.7428V88.3756C63.3781 93.6635 58.7229 96.4205 52.757 96.4205C46.8364 96.4205 42.0908 93.6635 42.0908 88.3756V87.7428C42.0908 82.5001 46.8364 79.7431 52.757 79.7431C58.7229 79.7431 63.3781 82.5001 63.3781 87.7428ZM47.7403 87.8332V88.2852C47.7403 90.3642 49.9549 91.6297 52.757 91.6297C55.6044 91.6297 57.7738 90.3642 57.7738 88.2852V87.8332C57.7738 85.7542 55.6044 84.5339 52.757 84.5339C49.9549 84.5339 47.7403 85.7542 47.7403 87.8332ZM46.7912 99.4938H52.5763V106.228H76.5302V111.471H46.7912V99.4938Z" fill="#0B70FE"/>
</g>
</g>
</g>
</svg>
