<svg width="182" height="180" viewBox="0 0 182 180" fill="none" xmlns="http://www.w3.org/2000/svg">
<g id="Frame 1171275526">
<g id="Group 100">
<path id="Subtract" fill-rule="evenodd" clip-rule="evenodd" d="M22 161.985C22 165.926 25.1947 169.12 29.1355 169.12H151.865C155.806 169.12 159.001 165.926 159.001 161.985V128.493C145.508 127.081 134.99 115.671 134.99 101.804C134.99 87.9379 145.508 76.5277 159.001 75.1162V39.2554C159.001 35.3146 155.806 32.1199 151.865 32.1199L112.62 32.1199C112.62 19.9034 102.717 10 90.5003 10C78.2838 10 68.3804 19.9034 68.3804 32.1199L29.1354 32.1199C25.1946 32.1199 22 35.3146 22 39.2554V75.5651C34.1078 78.1595 43.1857 88.9219 43.1857 101.804C43.1857 114.687 34.1078 125.45 22 128.044V161.985Z" fill="#66E2F1"/>
<g id="&#237;&#153;&#141;&#236;&#157;&#181;">
<path id="Vector" d="M129.838 104.538H124.053V80.9009H129.838V104.538ZM106.245 103.137C99.737 103.137 94.6299 99.7928 94.6299 92.6971V92.0643C94.6299 84.9685 99.737 81.5788 106.245 81.5788C112.708 81.5788 117.861 84.9685 117.861 92.0643V92.6971C117.861 99.7928 112.708 103.137 106.245 103.137ZM106.245 98.1206C109.499 98.1206 112.076 96.3579 112.076 92.6067V92.1095C112.076 88.313 109.499 86.5956 106.245 86.5956C102.991 86.5956 100.415 88.313 100.415 92.1095V92.6067C100.415 96.3579 102.991 98.1206 106.245 98.1206ZM129.838 123.521H124.053V112.041H100.731V106.843H129.838V123.521Z" fill="#0B70FE"/>
<path id="Vector_2" d="M73.1956 83.2513H86.8448V87.5449H53.6709V83.2513H67.4105V80.2231H73.1956V83.2513ZM73.1504 101.42V103.635H90.1441V108.064H50.3716V103.635H67.3653V101.42H65.1055C59.2752 101.42 55.7047 99.1151 55.7047 95.4994C55.7047 91.7933 59.2752 89.4431 65.1055 89.4431H75.4554C81.2405 89.4431 84.811 91.7933 84.811 95.4994C84.811 99.1151 81.2405 101.42 75.4554 101.42H73.1504ZM61.4898 95.4542C61.4898 96.4937 62.8457 97.1265 66.0094 97.1265H74.5063C77.7152 97.1265 79.0259 96.4937 79.0259 95.4542C79.0259 94.3695 77.7152 93.6916 74.5063 93.6916H66.0094C62.8457 93.6916 61.4898 94.3695 61.4898 95.4542ZM65.1055 110.098H75.4554C82.1896 110.098 85.9861 112.764 85.9861 116.787C85.9861 120.809 82.1896 123.521 75.4554 123.521H65.1055C58.4165 123.521 54.5748 120.809 54.5748 116.787C54.5748 112.764 58.4165 110.098 65.1055 110.098ZM66.4614 119.047H74.0543C78.3931 119.047 80.201 118.188 80.201 116.742C80.201 115.295 78.3931 114.527 74.0543 114.527H66.4614C62.1226 114.527 60.3147 115.295 60.3147 116.742C60.3147 118.188 62.1226 119.047 66.4614 119.047Z" fill="#0B70FE"/>
</g>
</g>
</g>
</svg>
