<svg width="182" height="180" viewBox="0 0 182 180" fill="none" xmlns="http://www.w3.org/2000/svg">
<g id="Frame 1171275527">
<g id="Group 101">
<path id="Subtract" fill-rule="evenodd" clip-rule="evenodd" d="M170.12 150.865C170.12 154.806 166.926 158.001 162.985 158.001H127.76C125.45 145.934 114.839 136.815 102.098 136.815C89.3577 136.815 78.7469 145.934 76.4363 158.001H40.2554C36.3146 158.001 33.1199 154.806 33.1199 150.865L33.1199 111.62C20.9034 111.62 11 101.717 11 89.5003C11 77.2838 20.9034 67.3804 33.1199 67.3804L33.1199 28.1354C33.1199 24.1947 36.3146 21 40.2554 21H162.985C166.926 21 170.12 24.1946 170.12 28.1354V150.865Z" fill="#FF108C"/>
<g id="&#234;&#177;&#180;&#234;&#181;&#173;">
<path id="Vector" d="M144.6 85.5285V90.5905H127.606V95.8784H139.99V111.923H134.205V100.895H109.482V95.8784H121.821V90.5905H104.827V85.5285H132.487C133.029 81.8225 133.391 78.0712 133.436 75.7662H109.573V70.5234H139.221V73.416C139.221 77.0317 138.86 81.3705 138.272 85.5285H144.6Z" fill="#FFB3DA"/>
<path id="Vector_2" d="M92.839 85.3029H82.0372C78.7378 89.6869 73.2239 92.9862 66.0378 95.5172L63.5972 90.5005C73.8115 86.9752 79.1446 81.7776 79.7774 76.7608H64.8175V71.5181H85.6528V74.3655C85.6528 76.4445 85.3365 78.3879 84.7489 80.1957H92.839V69.2583H98.5789V100.489H92.839V85.3029ZM75.7097 97.6414V106.229H100.161V111.471H69.9698V97.6414H75.7097Z" fill="#FFB3DA"/>
</g>
</g>
</g>
</svg>
