<svg width="182" height="180" viewBox="0 0 182 180" fill="none" xmlns="http://www.w3.org/2000/svg">
<g id="Frame 1171275525">
<g id="Group 99">
<path id="Subtract" fill-rule="evenodd" clip-rule="evenodd" d="M151.985 158.001C155.926 158.001 159.12 154.806 159.12 150.865V111.62C171.337 111.62 181.24 101.717 181.24 89.5005C181.24 77.2841 171.337 67.3807 159.12 67.3806V28.1354C159.12 24.1946 155.926 21 151.985 21H29.2554C25.3146 21 22.1199 24.1947 22.1199 28.1354L22.1199 67.3804C9.9034 67.3804 0 77.2838 0 89.5003C0 101.717 9.9034 111.62 22.1199 111.62L22.1199 150.865C22.1199 154.806 25.3146 158.001 29.2554 158.001H64.383C66.5093 145.305 77.549 135.631 90.8483 135.631C104.148 135.631 115.187 145.305 117.314 158.001H151.985Z" fill="#FFB3DA"/>
<g id="&#234;&#179;&#160;&#235;&#160;&#164;">
<path id="Vector" d="M123.238 78.7942V69.2578H129.023V111.471H123.238V95.4715H116.323V90.2288H123.238V84.0369H116.323V78.7942H123.238ZM100.233 100.443H103.623C107.871 100.443 112.21 100.036 116.458 99.3584L117.091 104.375C113.024 105.189 108.233 105.641 102.583 105.641H94.4932V86.1159H108.052V77.3479H94.4932V72.1504H113.792V91.1779H100.233V100.443Z" fill="#FF108C"/>
<path id="Vector_2" d="M79.1154 77.845V77.619H53.5344V72.3311H84.9456V76.1275C84.9456 82.3646 84.1321 90.1383 82.9118 97.2341L77.2171 96.3302C78.347 89.6863 79.1154 82.0482 79.1154 77.845ZM69.0366 87.3361V103.245H89.3297V108.533H49.5571V103.245H63.2515V87.3361H69.0366Z" fill="#FF108C"/>
</g>
</g>
</g>
</svg>
