<svg width="182" height="180" viewBox="0 0 182 180" fill="none" xmlns="http://www.w3.org/2000/svg">
<g id="Frame 1171275530">
<g id="Group 104">
<path id="&#237;&#141;&#188;&#236;&#166;&#144; &#235;&#170;&#168;&#236;&#150;&#145;" fill-rule="evenodd" clip-rule="evenodd" d="M151.865 21.1857H112.829C112.339 9.40248 102.632 0 90.7283 0C78.8248 0 69.1174 9.40248 68.6278 21.1857H29.1354C25.1946 21.1857 22 24.3803 22 28.3211V151.051C22 154.992 25.1947 158.186 29.1355 158.186H68.6135C68.8679 170.182 78.6716 179.828 90.7283 179.828C102.785 179.828 112.589 170.182 112.843 158.186H151.865C155.806 158.186 159.001 154.992 159.001 151.051V28.3211C159.001 24.3803 155.806 21.1857 151.865 21.1857Z" fill="#FF9F00"/>
<g id="&#236;&#132;&#156;&#236;&#154;&#184;">
<path id="Vector" d="M116.911 83.3644H109.318C102.494 83.3644 97.6577 81.3758 97.6577 76.4494C97.6577 71.5682 102.494 69.5796 109.318 69.5796H116.911C123.736 69.5796 128.617 71.5682 128.617 76.4494C128.617 81.3758 123.736 83.3644 116.911 83.3644ZM115.781 74.0992H110.493C105.929 74.0992 103.398 74.7771 103.398 76.4946C103.398 78.212 105.929 78.9352 110.493 78.9352H115.781C120.301 78.9352 122.832 78.1668 122.832 76.4946C122.832 74.7771 120.301 74.0992 115.781 74.0992ZM133.001 85.805V90.3698H116.007V93.3979H128.391V104.742H103.624V107.273H129.521V111.883H97.8837V100.313H122.606V97.9175H97.6577V93.3979H110.222V90.3698H93.2285V85.805H133.001Z" fill="#FFD817"/>
<path id="Vector_2" d="M81.1954 83.3642V69.4438H86.9804V111.657H81.1954V88.6522H72.0206V83.3642H81.1954ZM66.5518 71.794V77.5791C66.5518 81.014 66.1451 84.2682 65.3767 87.3867L77.2181 101.94L72.9245 105.601L63.1621 93.6689C61.1735 98.0078 58.2358 102.075 54.3489 106.007L50.2812 102.211C57.7386 94.6181 60.9023 87.1155 60.9023 77.5791V71.794H66.5518Z" fill="#FFD817"/>
</g>
</g>
</g>
</svg>
