<svg width="182" height="180" viewBox="0 0 182 180" fill="none" xmlns="http://www.w3.org/2000/svg">
<g id="Frame 1171275528">
<g id="Group 102">
<path id="Subtract" fill-rule="evenodd" clip-rule="evenodd" d="M29.1355 169.12C25.1947 169.12 22 165.926 22 161.985V39.2554C22 35.3146 25.1946 32.1199 29.1354 32.1199L68.3804 32.1199C68.3804 19.9034 78.2838 10 90.5003 10C102.717 10 112.62 19.9034 112.62 32.1199L151.865 32.1199C155.806 32.1199 159.001 35.3146 159.001 39.2554V75.3019C146.193 77.3334 136.403 88.4256 136.403 101.804C136.403 115.183 146.193 126.276 159.001 128.307V161.985C159.001 165.926 155.806 169.12 151.865 169.12H29.1355Z" fill="#FFD817"/>
<g id="&#236;&#132;&#156;&#234;&#176;&#149;">
<path id="Vector" d="M127.487 80.9014V89.127H133.589V94.3246H127.487V103.861H121.702V80.9014H127.487ZM115.104 82.89V85.4662C115.104 95.1833 107.782 100.923 95.7144 104.494L93.4546 99.3414C103.081 96.5844 108.324 92.4264 109.138 88.1327H94.7201V82.89H115.104ZM109.002 105.714H118.222C124.233 105.714 128.391 109.284 128.391 114.618C128.391 119.996 124.233 123.521 118.222 123.521H109.002C102.991 123.521 98.7877 119.996 98.7877 114.618C98.7877 109.284 102.991 105.714 109.002 105.714ZM109.816 118.369H117.409C120.843 118.369 122.606 116.832 122.606 114.572C122.606 112.358 120.843 110.821 117.409 110.821H109.816C106.381 110.821 104.573 112.358 104.573 114.572C104.573 116.832 106.381 118.369 109.816 118.369Z" fill="#FF9F00"/>
<path id="Vector_2" d="M81.1954 94.7763V80.856H86.9804V123.069H81.1954V100.064H72.0206V94.7763H81.1954ZM66.5518 83.2062V88.9912C66.5518 92.4261 66.1451 95.6803 65.3767 98.7988L77.2181 113.352L72.9245 117.013L63.1621 105.081C61.1735 109.42 58.2358 113.488 54.3489 117.42L50.2812 113.623C57.7386 106.03 60.9023 98.5276 60.9023 88.9912V83.2062H66.5518Z" fill="#FF9F00"/>
</g>
</g>
</g>
</svg>
