<svg width="182" height="180" viewBox="0 0 182 180" fill="none" xmlns="http://www.w3.org/2000/svg">
<g id="Frame 1171275532">
<g id="Group 105">
<path id="&#237;&#141;&#188;&#236;&#166;&#144; &#235;&#170;&#168;&#236;&#150;&#145;" fill-rule="evenodd" clip-rule="evenodd" d="M18.1354 21C14.1946 21 11 24.1947 11 28.1355V150.865C11 154.806 14.1947 158.001 18.1354 158.001H140.865C144.806 158.001 148.001 154.806 148.001 150.865L148.001 111.62C160.217 111.62 170.12 101.717 170.12 89.5003C170.12 77.2838 160.217 67.3804 148.001 67.3804L148.001 28.1354C148.001 24.1946 144.806 21 140.865 21H18.1354Z" fill="#66E2F1"/>
<g id="&#236;&#132;&#177;&#234;&#183;&#160;">
<path id="Vector" d="M115.448 87.427H122.002V92.6698H111.426V101.573H105.821V92.6698H99.3583V101.573H93.7088V92.6698H82.229V87.427H109.663C110.341 83.043 110.793 78.4782 110.838 75.7665H86.9746V70.4785H116.623V73.597C116.623 77.7099 116.171 82.6814 115.448 87.427ZM87.065 97.5058H92.8501V106.229H118.069V111.517H87.065V97.5058Z" fill="#0B70FE"/>
<path id="Vector_2" d="M75.9806 92.2633H70.1955V81.4614H61.9247V76.3543H70.1955V69.3037H75.9806V92.2633ZM62.6478 91.721L52.2075 84.3992C50.0833 87.3821 46.9648 90.0035 42.8519 92.3989L39.7334 87.8341C47.2811 83.3597 50.0381 78.6141 50.0381 73.281V70.524H55.6876V73.281C55.6876 75.5408 55.3712 77.6198 54.6933 79.5632L65.7663 87.2465L62.6478 91.721ZM56.6367 94.1163H66.2183C72.2746 94.1163 76.4778 97.6868 76.4778 103.02C76.4778 108.398 72.2746 111.924 66.2183 111.924H56.6367C50.5805 111.924 46.4224 108.398 46.4224 103.02C46.4224 97.6868 50.5805 94.1163 56.6367 94.1163ZM57.4503 106.771H65.4048C68.8849 106.771 70.6927 105.235 70.6927 102.975C70.6927 100.76 68.8849 99.2235 65.4048 99.2235H57.4503C53.9702 99.2235 52.2075 100.76 52.2075 102.975C52.2075 105.235 53.9702 106.771 57.4503 106.771Z" fill="#0B70FE"/>
</g>
</g>
</g>
</svg>
