<svg width="182" height="180" viewBox="0 0 182 180" fill="none" xmlns="http://www.w3.org/2000/svg">
<g id="Frame 1171275531">
<g id="Group 106">
<path id="Subtract" fill-rule="evenodd" clip-rule="evenodd" d="M140.865 32.1857H100.416C99.9269 20.4025 90.2194 11 78.3159 11C66.4124 11 56.705 20.4025 56.2154 32.1857H18.1354C14.1946 32.1857 11 35.3803 11 39.3211V73.4772C23.8074 75.5087 33.598 86.6008 33.598 99.9797C33.598 113.359 23.8074 124.451 11 126.482V162.051C11 165.992 14.1947 169.186 18.1355 169.186H140.865C144.806 169.186 148.001 165.992 148.001 162.051L148.001 122.806C160.217 122.806 170.12 112.902 170.12 100.686C170.12 88.4695 160.217 78.566 148.001 78.566L148.001 39.3211C148.001 35.3803 144.806 32.1857 140.865 32.1857Z" fill="#0B70FE"/>
<g id="&#236;&#151;&#176;&#236;&#132;&#184;">
<path id="Vector" d="M114.435 122.656V80.4434H120.039V122.656H114.435ZM99.2939 94.3637H105.26V81.1213H110.728V121.662H105.26V99.6517H99.2939V94.3637ZM95.5426 82.7936V88.5335C95.5426 92.0587 95.2714 95.4033 94.6387 98.6574L103.452 113.436L98.7967 116.6L92.5144 106.115C91.1134 109.911 89.1247 113.527 86.5486 117.007L82.1646 113.662C87.6333 106.024 90.0739 97.9794 90.0739 88.5335V82.7936H95.5426Z" fill="#66E2F1"/>
<path id="Vector_2" d="M70.6736 99.7421H62.8999C61.0017 103.539 57.16 105.346 52.7308 105.346C46.3581 105.346 41.251 101.64 41.251 93.731V93.0531C41.251 85.0534 46.3581 81.3473 52.7308 81.3473C56.708 81.3473 60.2333 82.8387 62.2671 85.9121H70.6736V80.4434H76.4587V111.674H70.6736V99.7421ZM47.0361 93.0531V93.6858C47.0361 98.2054 49.6122 100.284 52.7308 100.284C55.8041 100.284 58.3803 98.2054 58.3803 93.6858V93.0531C58.3803 88.5335 55.8041 86.4092 52.7308 86.4092C49.6122 86.4092 47.0361 88.5335 47.0361 93.0531ZM70.6736 95.1773V90.5221H63.9846C64.1202 91.2904 64.1654 92.1491 64.1654 93.0531V93.731C64.1654 94.2282 64.1654 94.7253 64.1202 95.1773H70.6736ZM53.5895 108.826V117.414H78.0406V122.656H47.8044V108.826H53.5895Z" fill="#66E2F1"/>
</g>
</g>
</g>
</svg>
